<?xml version="1.0" standalone="no"?>
<!DOCTYPE svg PUBLIC "-//W3C//DTD SVG 20010904//EN"
 "http://www.w3.org/TR/2001/REC-SVG-20010904/DTD/svg10.dtd">
<svg version="1.0" xmlns="http://www.w3.org/2000/svg"
 width="200.000000pt" height="70.000000pt" viewBox="0 0 200.000000 70.000000"
 preserveAspectRatio="xMidYMid meet">

<g transform="translate(0.000000,70.000000) scale(0.100000,-0.100000)"
fill="#000000" stroke="none">
<path d="M430 463 c-57 -29 -78 -128 -40 -190 33 -54 112 -60 118 -9 2 18 0
26 -7 22 -17 -11 -51 13 -51 35 0 14 10 25 30 32 30 11 31 14 28 67 -3 64 -19
72 -78 43z"/>
<path d="M1813 474 c-15 -6 -16 -53 -7 -167 l7 -77 33 0 c26 0 33 4 36 22 3
21 4 21 15 -5 l13 -27 -930 0 c-820 0 -930 -2 -930 -15 0 -13 113 -15 960 -15
847 0 960 2 960 15 0 10 -10 15 -27 16 -28 0 -28 1 -5 11 25 12 28 28 10 46
-10 10 -8 19 6 42 24 41 14 113 -20 135 -25 16 -101 28 -121 19z m92 -134 c-3
-5 -10 -10 -16 -10 -5 0 -9 5 -9 10 0 6 7 10 16 10 8 0 12 -4 9 -10z"/>
<path d="M50 415 c0 -49 2 -55 21 -55 19 0 21 -4 15 -32 -4 -18 -10 -48 -13
-66 l-6 -32 56 0 c48 0 55 3 61 23 9 34 8 37 -14 37 -11 0 -20 2 -20 5 0 2 14
38 30 80 17 42 30 80 30 85 0 6 -35 10 -80 10 l-80 0 0 -55z"/>
<path d="M250 467 c0 -2 -9 -53 -20 -113 -11 -60 -20 -112 -20 -116 0 -13 38
-9 43 5 4 9 6 9 6 -1 1 -10 6 -10 21 -2 14 7 20 7 20 0 0 -5 16 -10 35 -10 19
0 35 3 35 8 -1 4 -11 57 -23 117 l-23 110 -37 3 c-20 2 -37 1 -37 -1z m30
-167 c0 -5 -4 -10 -10 -10 -5 0 -10 5 -10 10 0 6 5 10 10 10 6 0 10 -4 10 -10z"/>
<path d="M574 418 c3 -29 6 -83 6 -120 l0 -68 60 0 60 0 0 31 c0 26 -3 30 -22
27 -23 -3 -23 -2 -19 90 l3 92 -47 0 -48 0 7 -52z"/>
<path d="M710 381 c0 -49 3 -103 6 -120 6 -27 10 -31 40 -31 l34 0 0 120 0
120 -40 0 -40 0 0 -89z"/>
<path d="M808 458 c-2 -7 -1 -60 2 -118 5 -98 6 -105 27 -108 18 -3 22 2 25
33 l3 36 43 -36 42 -37 0 69 c0 37 3 92 6 121 7 51 6 52 -20 52 -20 0 -26 -5
-26 -22 l-1 -23 -18 23 c-21 24 -76 31 -83 10z"/>
<path d="M970 415 c0 -47 3 -55 19 -55 18 0 18 -3 5 -52 -21 -78 -21 -78 40
-78 40 0 55 4 60 16 11 28 6 43 -13 46 -18 3 -17 7 9 73 43 105 44 105 -45
105 l-75 0 0 -55z"/>
<path d="M1130 388 c0 -118 8 -158 31 -158 15 0 19 7 19 33 l0 32 26 -33 27
-33 18 28 c18 27 21 26 23 -7 1 -8 11 -16 24 -18 19 -3 22 1 22 35 0 21 3 75
7 121 l6 82 -35 0 c-31 0 -37 -4 -50 -37 l-15 -38 -17 38 c-14 33 -20 37 -51
37 l-35 0 0 -82z"/>
<path d="M1340 388 c0 -46 3 -100 6 -120 l7 -38 52 0 c46 0 53 3 59 23 9 36 7
40 -19 33 -14 -4 -25 -2 -25 4 0 5 8 10 19 10 14 0 20 10 25 46 3 26 6 64 6
85 l0 39 -65 0 -65 0 0 -82z"/>
<path d="M1480 456 c0 -7 11 -39 25 -70 16 -36 25 -75 25 -106 l0 -50 35 0 35
0 0 49 c0 30 9 70 25 105 14 31 25 63 25 71 0 18 -39 20 -44 3 -16 -52 -19
-54 -29 -20 -9 30 -13 32 -53 32 -31 0 -44 -4 -44 -14z"/>
<path d="M1660 388 c0 -46 3 -100 6 -120 l7 -38 52 0 c46 0 53 3 59 23 9 36 7
40 -19 33 -14 -4 -25 -2 -25 4 0 5 8 10 19 10 15 0 19 10 25 53 3 28 6 67 6
85 l0 32 -65 0 -65 0 0 -82z"/>
</g>
</svg>
